<?xml version="1.0" encoding="UTF-8"?>
<svg width="160" height="160" viewBox="0 0 160 160" xmlns="http://www.w3.org/2000/svg">
  <!-- Background Circle -->
  <circle cx="80" cy="80" r="75" fill="#4f46e5" />
  <circle cx="80" cy="80" r="65" fill="#6366f1" />
  
  <!-- Q Letter with Quiz Bubble -->
  <path d="M80 40c-22.1 0-40 17.9-40 40s17.9 40 40 40c5.6 0 10.9-1.2 15.8-3.2l18.2 11.2-7-17.5c8.1-8.3 13-19.6 13-32.5 0-22.1-17.9-40-40-40z" fill="#f8fafc" />
  
  <!-- Question Mark -->
  <path d="M80 55c-7.7 0-14 6.3-14 14 0 2.2 1.8 4 4 4s4-1.8 4-4c0-3.3 2.7-6 6-6s6 2.7 6 6-2.7 6-6 6c-2.2 0-4 1.8-4 4v8c0 2.2 1.8 4 4 4s4-1.8 4-4v-4.6c5.9-2.6 10-8.5 10-15.4 0-7.7-6.3-14-14-14z" fill="#4f46e5" />
  <circle cx="80" cy="105" r="5" fill="#4f46e5" />
  
  <!-- Multiple Choice Options -->
  <rect x="50" y="80" width="20" height="6" rx="3" fill="#4f46e5" />
  <rect x="50" y="95" width="15" height="6" rx="3" fill="#4f46e5" />
  <rect x="50" y="110" width="25" height="6" rx="3" fill="#4f46e5" />
</svg> 